<svg width="94" height="94" viewBox="0 0 94 94" fill="none" xmlns="http://www.w3.org/2000/svg">
<path d="M43.0557 30.0607C40.9026 30.0607 39.1409 31.6988 39.1409 33.7009V46.7452L38.1622 46.5147C37.9535 46.2599 37.8621 46.1021 37.3467 45.7502C36.4985 45.1798 35.2066 44.6096 33.4711 44.6096C31.605 44.6096 30 46.1628 30 48.1285V48.6138L30.3654 48.99L39.1214 57.217V64H60V43.5539C60 41.8308 58.6951 40.3383 56.9008 39.9864L46.9508 37.9722V33.6403C46.9508 31.6381 45.1762 30 43.0362 30L43.0557 30.0607ZM43.0557 32.4875C43.7864 32.4875 44.3605 33.0093 44.3605 33.7009V39.9864L45.3785 40.2049L56.3789 42.3647C56.9791 42.4861 57.3967 42.9958 57.3967 43.5781V55.5182H40.9548L32.7077 47.7401C32.8121 47.2185 33.0339 47.0121 33.4385 47.0121C34.6129 47.0121 35.3436 47.3398 35.8003 47.6552C36.2571 47.9586 36.3615 48.177 36.3615 48.177L36.5963 48.5896L37.1183 48.7412L40.0544 49.4571L41.6855 49.8334V33.6281C41.6855 32.9365 42.2466 32.4147 42.9905 32.4147L43.0557 32.4875ZM41.7508 57.9694H57.4097V61.6096H41.7508V57.9694Z" fill="#2BB9FD"/>
<path d="M47 2C41.0905 2 35.2389 3.16396 29.7792 5.42542C24.3196 7.68688 19.3588 11.0016 15.1802 15.1802C11.0016 19.3588 7.68688 24.3196 5.42542 29.7792C3.16396 35.2389 2 41.0905 2 47C2 52.9095 3.16396 58.7611 5.42542 64.2208C7.68688 69.6804 11.0016 74.6412 15.1802 78.8198C19.3588 82.9984 24.3196 86.3131 29.7792 88.5746C35.2389 90.836 41.0905 92 47 92" stroke="#2BB9FD" stroke-width="3" stroke-linecap="round" stroke-dasharray="0.1 10"/>
<path d="M47 92C52.9095 92 58.7611 90.836 64.2208 88.5746C69.6804 86.3131 74.6412 82.9984 78.8198 78.8198C82.9984 74.6412 86.3131 69.6804 88.5746 64.2208C90.836 58.7611 92 52.9095 92 47C92 41.0905 90.836 35.2389 88.5746 29.7792C86.3131 24.3196 82.9984 19.3588 78.8198 15.1802C74.6412 11.0016 69.6804 7.68688 64.2208 5.42542C58.7611 3.16396 52.9095 2 47 2" stroke="#2BB9FD" stroke-width="3" stroke-linecap="round"/>
</svg>
