<svg width="94" height="94" viewBox="0 0 94 94" fill="none" xmlns="http://www.w3.org/2000/svg">
<path d="M2 47C2 35.0653 6.74106 23.6193 15.1802 15.1802C23.6193 6.74106 35.0653 2 47 2C58.9347 2 70.3807 6.74106 78.8198 15.1802C87.2589 23.6193 92 35.0653 92 47C92 58.9347 87.2589 70.3807 78.8198 78.8198C70.3807 87.2589 58.9347 92 47 92C35.0653 92 23.6193 87.2589 15.1802 78.8198C6.74106 70.3807 2 58.9347 2 47L2 47Z" stroke="#2BB9FD" stroke-width="3" stroke-linecap="round"/>
<g clip-path="url(#clip0_572_6974)">
<path d="M42.7497 52.9503L36.7997 47.0003L34.8164 48.9836L42.7497 56.9169L59.7497 39.9169L57.7664 37.9336L42.7497 52.9503Z" fill="#2BB9FD"/>
</g>
<defs>
<clipPath id="clip0_572_6974">
<rect width="34" height="34" fill="white" transform="translate(30 30)"/>
</clipPath>
</defs>
</svg>
