<svg width="94" height="94" viewBox="0 0 94 94" fill="none" xmlns="http://www.w3.org/2000/svg">
<path d="M47 2C41.0905 2 35.2389 3.16396 29.7792 5.42542C24.3196 7.68688 19.3588 11.0016 15.1802 15.1802C11.0016 19.3588 7.68688 24.3196 5.42542 29.7792C3.16396 35.2389 2 41.0905 2 47" stroke="#2BB9FD" stroke-width="3" stroke-linecap="round" stroke-dasharray="0.1 10"/>
<path d="M2 47C2 55.9002 4.6392 64.6004 9.58387 72.0007C14.5285 79.4009 21.5566 85.1686 29.7792 88.5746C38.0019 91.9805 47.0499 92.8717 55.7791 91.1353C64.5082 89.399 72.5264 85.1132 78.8198 78.8198C85.1132 72.5264 89.399 64.5082 91.1353 55.7791C92.8717 47.0499 91.9805 38.0019 88.5746 29.7792C85.1686 21.5566 79.4009 14.5285 72.0007 9.58387C64.6005 4.63921 55.9002 2 47 2" stroke="#2BB9FD" stroke-width="3" stroke-linecap="round"/>
<path d="M52.6673 34.9127C54.7664 35.9558 56.209 38.1219 56.209 40.625C56.209 43.1281 54.7664 45.2942 52.6673 46.3373M55.5007 53.7524C57.6419 54.7213 59.5701 56.3004 61.1673 58.3333M32.834 58.3333C35.5915 54.8237 39.3353 52.6667 43.459 52.6667C47.5826 52.6667 51.3265 54.8237 54.084 58.3333M49.834 40.625C49.834 44.1458 46.9798 47 43.459 47C39.9382 47 37.084 44.1458 37.084 40.625C37.084 37.1042 39.9382 34.25 43.459 34.25C46.9798 34.25 49.834 37.1042 49.834 40.625Z" stroke="#2BB9FD" stroke-width="2" stroke-linecap="round" stroke-linejoin="round"/>
</svg>
