<svg width="369" height="358" viewBox="0 0 369 358" fill="none" xmlns="http://www.w3.org/2000/svg">
<path d="M116.002 337.5L116.356 336.565L116.002 337.5ZM368.002 269.5L365.291 280.724L356.926 272.765L368.002 269.5ZM360.56 278.648C358.695 280.537 356.837 282.389 354.985 284.205L353.585 282.777C355.429 280.969 357.28 279.124 359.137 277.243L360.56 278.648ZM349.335 289.651C347.419 291.466 345.509 293.241 343.605 294.978L342.257 293.5C344.152 291.772 346.052 290.005 347.96 288.199L349.335 289.651ZM337.768 300.196C335.771 301.944 333.78 303.651 331.793 305.314L330.509 303.781C332.484 302.127 334.464 300.43 336.45 298.691L337.768 300.196ZM325.716 310.285C323.648 311.936 321.585 313.541 319.526 315.099L318.319 313.505C320.364 311.957 322.413 310.363 324.468 308.722L325.716 310.285ZM313.215 319.745C311.064 321.282 308.916 322.77 306.772 324.209L305.658 322.548C307.785 321.121 309.916 319.644 312.052 318.117L313.215 319.745ZM300.17 328.488C297.922 329.894 295.677 331.246 293.433 332.545L292.432 330.814C294.655 329.527 296.88 328.187 299.109 326.793L300.17 328.488ZM286.559 336.358C284.221 337.6 281.883 338.783 279.546 339.909L278.677 338.108C280.991 336.993 283.305 335.821 285.621 334.592L286.559 336.358ZM272.395 343.177C269.968 344.225 267.541 345.213 265.111 346.14L264.398 344.272C266.8 343.355 269.201 342.378 271.601 341.341L272.395 343.177ZM257.702 348.779C255.198 349.608 252.691 350.373 250.179 351.077L249.639 349.151C252.121 348.456 254.599 347.699 257.074 346.881L257.702 348.779ZM242.555 353.018C239.992 353.606 237.423 354.131 234.846 354.594L234.493 352.625C237.038 352.168 239.576 351.65 242.107 351.069L242.555 353.018ZM227.071 355.797C224.472 356.135 221.865 356.412 219.247 356.628L219.083 354.635C221.669 354.422 224.245 354.148 226.812 353.814L227.071 355.797ZM211.395 357.091C208.785 357.185 206.164 357.22 203.53 357.197L203.548 355.197C206.152 355.22 208.743 355.185 211.323 355.093L211.395 357.091ZM195.671 356.958C193.071 356.823 190.458 356.634 187.83 356.391L188.015 354.399C190.616 354.64 193.202 354.827 195.774 354.96L195.671 356.958ZM180.02 355.515C177.445 355.177 174.855 354.788 172.25 354.351L172.581 352.378C175.164 352.812 177.73 353.197 180.281 353.532L180.02 355.515ZM164.526 352.918C161.984 352.404 159.426 351.844 156.853 351.239L157.31 349.292C159.864 349.892 162.402 350.448 164.923 350.958L164.526 352.918ZM149.232 349.332C146.725 348.667 144.203 347.962 141.664 347.216L142.227 345.297C144.75 346.038 147.256 346.739 149.745 347.399L149.232 349.332ZM134.163 344.914C131.702 344.127 129.225 343.303 126.731 342.444L127.382 340.553C129.863 341.407 132.326 342.226 134.773 343.009L134.163 344.914ZM119.35 339.815C118.12 339.364 116.886 338.904 115.648 338.435L116.356 336.565C117.588 337.031 118.816 337.489 120.04 337.938L119.35 339.815ZM115.648 338.435C114.409 337.966 113.176 337.484 111.95 336.988L112.699 335.134C113.911 335.624 115.13 336.101 116.356 336.565L115.648 338.435ZM104.678 333.855C102.27 332.752 99.891 331.597 97.5432 330.39L98.4571 328.611C100.778 329.804 103.13 330.946 105.51 332.036L104.678 333.855ZM90.5772 326.611C88.2821 325.299 86.0195 323.936 83.7906 322.525L84.8603 320.835C87.064 322.23 89.3011 323.577 91.5701 324.875L90.5772 326.611ZM77.1891 318.137C75.0207 316.625 72.8877 315.065 70.7915 313.46L72.0074 311.872C74.0801 313.459 76.1892 315.001 78.3333 316.496L77.1891 318.137ZM64.609 308.504C62.5842 306.806 60.5977 305.064 58.6509 303.279L60.0026 301.805C61.9277 303.57 63.892 305.293 65.8942 306.972L64.609 308.504ZM52.9298 297.796C51.0636 295.926 49.2385 294.016 47.4558 292.066L48.932 290.717C50.6948 292.645 52.4997 294.534 54.3452 296.383L52.9298 297.796ZM42.2385 286.101C40.5446 284.076 38.8943 282.013 37.2893 279.914L38.8781 278.699C40.4654 280.775 42.0973 282.815 43.7725 284.818L42.2385 286.101ZM32.6153 273.515C31.1051 271.349 29.6412 269.149 28.225 266.915L29.9142 265.844C31.3146 268.053 32.7623 270.229 34.2558 272.371L32.6153 273.515ZM24.1312 260.134C22.8174 257.846 21.5523 255.527 20.3372 253.178L22.1136 252.259C23.3153 254.582 24.5664 256.876 25.8656 259.138L24.1312 260.134ZM16.8496 246.056C15.7428 243.665 14.6866 241.245 13.6825 238.799L15.5327 238.039C16.5257 240.458 17.5701 242.851 18.6647 245.216L16.8496 246.056ZM10.8357 231.405C9.94199 228.922 9.10104 226.415 8.31409 223.885L10.2239 223.291C11.0021 225.793 11.8337 228.273 12.7174 230.727L10.8357 231.405ZM6.12949 216.275C5.45862 213.728 4.84186 211.16 4.28049 208.572L6.23505 208.148C6.79019 210.707 7.40009 213.247 8.06351 215.765L6.12949 216.275ZM2.76938 200.783C2.32538 198.191 1.93655 195.581 1.60416 192.955L3.58832 192.704C3.91708 195.301 4.30157 197.882 4.74066 200.445L2.76938 200.783ZM0.781372 185.077C0.564758 182.45 0.404419 179.807 0.301544 177.152L2.30005 177.074C2.40179 179.701 2.56039 182.314 2.77463 184.913L0.781372 185.077ZM0.165894 169.247C0.177338 166.618 0.245117 163.978 0.3703 161.327L2.36807 161.421C2.24423 164.044 2.17719 166.655 2.16586 169.256L0.165894 169.247ZM0.913574 153.408C1.14825 150.799 1.43881 148.181 1.78622 145.555L3.76892 145.818C3.42517 148.416 3.13773 151.006 2.90555 153.587L0.913574 153.408ZM2.98987 137.716C3.44159 135.131 3.94879 132.54 4.51245 129.944L6.46692 130.369C5.90903 132.938 5.40704 135.502 4.96002 138.06L2.98987 137.716ZM6.34525 122.252C7.00674 119.703 7.72321 117.149 8.49554 114.593L10.4101 115.172C9.64532 117.703 8.93597 120.231 8.28113 122.755L6.34525 122.252ZM10.9194 107.096C11.7747 104.614 12.6834 102.129 13.6463 99.6442L15.5112 100.367C14.5574 102.828 13.6574 105.289 12.8103 107.748L10.9194 107.096ZM16.6378 92.3272C17.6724 89.9236 18.7582 87.5201 19.8962 85.1175L21.7037 85.9736C20.576 88.3547 19.4999 90.7364 18.4749 93.1179L16.6378 92.3272ZM23.4167 78.0111C24.615 75.6946 25.8625 73.3797 27.1599 71.0673L28.9042 72.0459C27.6177 74.3387 26.3809 76.6337 25.1931 78.93L23.4167 78.0111ZM31.1658 64.1985C32.5128 61.9741 33.9066 59.7527 35.3481 57.5349L37.025 58.6248C35.5951 60.8249 34.2125 63.0283 32.8766 65.2344L31.1658 64.1985ZM39.7934 50.9251C41.2747 48.7949 42.8006 46.6688 44.3719 44.5472L45.9791 45.7375C44.4196 47.8432 42.9053 49.9532 41.4355 52.0669L39.7934 50.9251ZM49.2094 38.2126C50.8122 36.1761 52.4575 34.1444 54.1459 32.1181L55.6824 33.3983C54.0059 35.4105 52.3722 37.4277 50.781 39.4495L49.2094 38.2126ZM59.3285 26.0696C61.0421 24.1241 62.7962 22.184 64.5913 20.2499L66.0572 21.6105C64.2738 23.5319 62.5313 25.4591 60.8293 27.3915L59.3285 26.0696ZM70.0728 14.4941C71.8888 12.6352 73.7434 10.7822 75.6373 8.93581L77.0335 10.3678C75.1512 12.203 73.308 14.0444 71.5035 15.8917L70.0728 14.4941ZM81.3736 3.47511C82.349 2.56826 83.334 1.66311 84.3289 0.759707L85.6734 2.24029C84.6844 3.13847 83.705 4.03834 82.7354 4.93986L81.3736 3.47511Z" fill="#2BB9FD"/>
</svg>
