<svg width="461" height="453" viewBox="0 0 461 453" fill="none" xmlns="http://www.w3.org/2000/svg">
<path d="M313.502 142L314.456 141.699L313.502 142ZM202.002 440L202.277 440.961L202.002 440ZM1.00195 383H2.00195H1.00195ZM75.0021 275.5L74.5769 274.595L75.0021 275.5ZM333.502 422.5L333.201 423.453L333.502 422.5ZM460.502 337.5L450.281 332.127L450.739 343.665L460.502 337.5ZM62.002 2.5C63.3707 2.5 64.7311 2.50194 66.0831 2.50582L66.0889 0.505831C64.7349 0.50194 63.3726 0.5 62.002 0.5V2.5ZM74.0962 2.55262C76.785 2.57652 79.4397 2.60862 82.0609 2.649L82.0917 0.649238C79.466 0.608784 76.8069 0.576636 74.114 0.552695L74.0962 2.55262ZM90.0926 2.80114C92.7802 2.86184 95.4312 2.93185 98.0463 3.01127L98.107 1.01219C95.4866 0.932607 92.8304 0.862468 90.1378 0.801654L90.0926 2.80114ZM106.072 3.28906C108.766 3.39409 111.42 3.50983 114.036 3.63642L114.132 1.63876C111.511 1.51186 108.85 1.39584 106.15 1.29058L106.072 3.28906ZM122.026 4.06419C124.732 4.22336 127.394 4.39504 130.013 4.57939L130.154 2.58433C127.526 2.39942 124.857 2.22725 122.144 2.06764L122.026 4.06419ZM137.933 5.18627C140.652 5.41226 143.324 5.65305 145.948 5.90883L146.142 3.91826C143.508 3.66153 140.827 3.41989 138.099 3.19314L137.933 5.18627ZM153.84 6.73927C156.542 7.04548 159.193 7.36903 161.792 7.71016L162.052 5.72717C159.441 5.38445 156.779 5.05947 154.065 4.75199L153.84 6.73927ZM169.718 8.82906C172.386 9.23323 174.997 9.65779 177.553 10.103L177.896 8.1327C175.326 7.68483 172.7 7.25791 170.018 6.85162L169.718 8.82906ZM185.398 11.5692C188.071 12.1043 190.68 12.6645 193.227 13.2503L193.675 11.3012C191.109 10.711 188.481 10.1468 185.79 9.60809L185.398 11.5692ZM200.964 15.1585C203.582 15.8498 206.13 16.5715 208.611 17.3239L209.191 15.41C206.686 14.6503 204.115 13.9221 201.475 13.2247L200.964 15.1585ZM216.159 19.7802C218.716 20.6717 221.195 21.6003 223.602 22.5667L224.347 20.7108C221.911 19.7324 219.402 18.793 216.818 17.8917L216.159 19.7802ZM230.913 25.7218C233.365 26.8578 235.735 28.0392 238.027 29.2666L238.971 27.5034C236.644 26.2573 234.239 25.0589 231.754 23.9072L230.913 25.7218ZM244.906 33.2288C247.187 34.6411 249.385 36.1069 251.507 37.6272L252.672 36.0016C250.513 34.4547 248.277 32.964 245.959 31.5285L244.906 33.2288ZM257.786 42.4681C259.835 44.1663 261.808 45.9248 263.71 47.7451L265.093 46.3C263.156 44.4471 261.148 42.6569 259.062 40.9282L257.786 42.4681ZM269.245 53.4269C271.018 55.3787 272.727 57.3942 274.378 59.4747L275.945 58.2314C274.267 56.1171 272.529 54.0677 270.725 52.0821L269.245 53.4269ZM279.116 65.8428C280.616 67.9928 282.068 70.2056 283.476 72.4826L285.177 71.4306C283.75 69.1238 282.278 66.8799 280.756 64.6982L279.116 65.8428ZM287.488 79.3472C288.754 81.6366 289.985 83.9852 291.187 86.3941L292.977 85.5012C291.763 83.0687 290.518 80.6951 289.238 78.3795L287.488 79.3472ZM294.611 93.5871C295.695 95.9691 296.756 98.4054 297.799 100.897L299.644 100.124C298.594 97.6156 297.524 95.1608 296.432 92.7591L294.611 93.5871ZM300.788 108.301C301.74 110.745 302.679 113.238 303.609 115.781L305.488 115.094C304.553 112.539 303.609 110.033 302.651 107.575L300.788 108.301ZM306.292 123.316C307.149 125.787 308.001 128.302 308.851 130.862L310.749 130.232C309.897 127.664 309.042 125.141 308.181 122.66L306.292 123.316ZM311.324 138.448C311.732 139.722 312.14 141.006 312.548 142.301L314.456 141.699C314.046 140.402 313.637 139.115 313.228 137.838L311.324 138.448ZM312.548 142.301C312.951 143.576 313.346 144.855 313.733 146.136L315.647 145.558C315.258 144.269 314.861 142.982 314.456 141.699L312.548 142.301ZM315.96 153.859C316.67 156.439 317.349 159.03 317.996 161.63L319.937 161.147C319.286 158.531 318.603 155.925 317.889 153.328L315.96 153.859ZM319.842 169.451C320.425 172.065 320.977 174.687 321.497 177.315L323.459 176.927C322.936 174.283 322.381 171.646 321.794 169.016L319.842 169.451ZM322.96 185.216C323.416 187.857 323.839 190.502 324.231 193.151L326.209 192.859C325.815 190.194 325.389 187.532 324.931 184.876L322.96 185.216ZM325.307 201.113C325.634 203.774 325.928 206.436 326.189 209.1L328.18 208.905C327.917 206.225 327.621 203.546 327.293 200.87L325.307 201.113ZM326.874 217.108C327.069 219.782 327.231 222.456 327.359 225.127L329.356 225.032C329.228 222.343 329.065 219.653 328.869 216.962L326.874 217.108ZM327.641 233.153C327.701 235.837 327.727 238.517 327.718 241.192L329.718 241.198C329.727 238.506 329.701 235.809 329.64 233.108L327.641 233.153ZM327.586 249.224C327.506 251.905 327.392 254.578 327.241 257.244L329.238 257.357C329.389 254.673 329.505 251.982 329.585 249.284L327.586 249.224ZM326.679 265.261C326.454 267.937 326.192 270.603 325.894 273.257L327.882 273.481C328.182 270.807 328.445 268.123 328.672 265.429L326.679 265.261ZM324.883 281.22C324.507 283.877 324.093 286.521 323.64 289.151L325.611 289.49C326.067 286.841 326.485 284.177 326.864 281.501L324.883 281.22ZM322.157 297.048C321.621 299.679 321.046 302.293 320.431 304.888L322.377 305.349C322.997 302.733 323.577 300.098 324.117 297.448L322.157 297.048ZM318.456 312.661C317.752 315.252 317.007 317.823 316.221 320.373L318.132 320.962C318.925 318.391 319.676 315.798 320.386 313.185L318.456 312.661ZM313.722 328.002C312.842 330.537 311.919 333.047 310.954 335.531L312.818 336.255C313.793 333.748 314.723 331.215 315.611 328.659L313.722 328.002ZM307.912 342.945C306.846 345.408 305.736 347.842 304.582 350.246L306.385 351.112C307.551 348.684 308.672 346.226 309.747 343.739L307.912 342.945ZM300.964 357.405C299.707 359.771 298.404 362.104 297.055 364.403L298.78 365.415C300.144 363.092 301.46 360.734 302.73 358.344L300.964 357.405ZM292.852 371.222C291.397 373.469 289.895 375.679 288.346 377.851L289.974 379.012C291.541 376.816 293.06 374.581 294.531 372.309L292.852 371.222ZM283.542 384.264C281.89 386.364 280.19 388.423 278.441 390.439L279.952 391.749C281.722 389.709 283.442 387.625 285.114 385.5L283.542 384.264ZM273.047 396.358C271.201 398.285 269.307 400.167 267.363 402.002L268.736 403.456C270.705 401.598 272.623 399.692 274.491 397.741L273.047 396.358ZM261.406 407.347C259.381 409.073 257.306 410.751 255.183 412.379L256.4 413.966C258.551 412.317 260.652 410.618 262.703 408.87L261.406 407.347ZM248.704 417.084C246.511 418.592 244.27 420.049 241.981 421.454L243.027 423.158C245.346 421.735 247.616 420.26 249.837 418.733L248.704 417.084ZM235.062 425.458C232.736 426.725 230.363 427.941 227.944 429.105L228.81 430.907C231.26 429.729 233.663 428.498 236.019 427.214L235.062 425.458ZM220.636 432.396C218.19 433.425 215.7 434.402 213.164 435.326L213.849 437.205C216.415 436.27 218.936 435.281 221.412 434.239L220.636 432.396ZM205.599 437.881C204.319 438.28 203.028 438.666 201.727 439.039L202.277 440.961C203.594 440.584 204.9 440.194 206.194 439.79L205.599 437.881ZM201.727 439.039C200.491 439.393 199.239 439.74 197.974 440.081L198.494 442.012C199.77 441.669 201.031 441.318 202.277 440.961L201.727 439.039ZM190.355 442.012C187.842 442.61 185.283 443.183 182.683 443.727L183.093 445.685C185.71 445.136 188.287 444.56 190.818 443.958L190.355 442.012ZM174.968 445.241C172.414 445.709 169.828 446.15 167.217 446.562L167.529 448.538C170.156 448.123 172.758 447.679 175.328 447.208L174.968 445.241ZM159.435 447.697C156.851 448.042 154.248 448.36 151.629 448.648L151.847 450.636C154.482 450.346 157.101 450.027 159.701 449.679L159.435 447.697ZM143.802 449.415C141.196 449.64 138.581 449.834 135.96 449.997L136.084 451.994C138.721 451.829 141.352 451.634 143.974 451.408L143.802 449.415ZM128.106 450.391C125.486 450.49 122.864 450.556 120.247 450.588L120.272 452.588C122.906 452.556 125.545 452.489 128.182 452.389L128.106 450.391ZM112.387 450.582C109.759 450.545 107.139 450.472 104.533 450.362L104.449 452.36C107.074 452.471 109.712 452.545 112.359 452.582L112.387 450.582ZM96.6918 449.913C94.0639 449.722 91.4553 449.491 88.871 449.218L88.6613 451.207C91.268 451.482 93.8982 451.715 96.547 451.907L96.6918 449.913ZM81.0814 448.258C78.4662 447.888 75.8827 447.471 73.3361 447.007L72.9776 448.975C75.5511 449.444 78.1607 449.865 80.8008 450.239L81.0814 448.258ZM65.6531 445.435C63.0717 444.845 60.5375 444.202 58.0564 443.504L57.5144 445.429C60.0291 446.137 62.5958 446.788 65.208 447.384L65.6531 445.435ZM50.5798 441.171C48.0731 440.308 45.6339 439.38 43.2697 438.386L42.4947 440.23C44.902 441.242 47.3825 442.185 49.9285 443.062L50.5798 441.171ZM36.1906 435.092C33.8392 433.882 31.5825 432.595 29.4293 431.228L28.3572 432.916C30.5646 434.318 32.874 435.635 35.2756 436.871L36.1906 435.092ZM23.099 426.733C21.0437 425.099 19.1162 423.371 17.3266 421.548L15.8991 422.948C17.7493 424.834 19.7383 426.616 21.8542 428.299L23.099 426.733ZM12.2945 415.667C10.7612 413.596 9.38284 411.42 8.17068 409.136L6.40402 410.073C7.6641 412.448 9.09604 414.708 10.6871 416.857L12.2945 415.667ZM5.07753 402.051C4.2475 399.672 3.57694 397.191 3.07635 394.603L1.11274 394.983C1.63138 397.664 2.32689 400.239 3.18923 402.71L5.07753 402.051ZM2.11847 386.93C2.04114 385.644 2.00194 384.334 2.00195 383H0.00195312C0.00194025 384.373 0.0422884 385.723 0.122071 387.05L2.11847 386.93ZM2.00195 383C2.00197 381.732 2.02399 380.466 2.06792 379.202L0.0691247 379.133C0.0243944 380.419 0.00196528 381.708 0.00195312 383H2.00195ZM2.59689 371.627C2.86208 369.105 3.21544 366.598 3.65603 364.108L1.68664 363.76C1.23787 366.295 0.877952 368.849 0.607857 371.418L2.59689 371.627ZM5.24193 356.683C5.85718 354.229 6.55895 351.797 7.3463 349.388L5.44529 348.766C4.64341 351.22 3.92864 353.697 3.30198 356.197L5.24193 356.683ZM9.95622 342.257C10.9059 339.918 11.939 337.605 13.0546 335.323L11.2577 334.445C10.1221 336.768 9.07021 339.123 8.10313 341.505L9.95622 342.257ZM16.6206 328.615C17.8781 326.432 19.2144 324.28 20.6289 322.163L18.9659 321.052C17.5269 323.205 16.1671 325.395 14.8874 327.617L16.6206 328.615ZM25.0532 315.987C26.5842 313.99 28.1888 312.029 29.8663 310.106L28.3593 308.791C26.6542 310.745 25.0228 312.739 23.4659 314.77L25.0532 315.987ZM35.0398 304.535C36.8071 302.745 38.6425 300.994 40.545 299.284L39.2083 297.796C37.2763 299.532 35.4122 301.311 33.6166 303.13L35.0398 304.535ZM46.3443 294.37C48.307 292.801 50.3316 291.273 52.4176 289.789L51.2579 288.159C49.1419 289.665 47.0876 291.215 45.0956 292.807L46.3443 294.37ZM58.7397 285.542C60.86 284.198 63.0364 282.897 65.2684 281.639L64.2866 279.897C62.025 281.171 59.8189 282.49 57.6692 283.853L58.7397 285.542ZM71.9951 278.068C73.1264 277.503 74.2705 276.949 75.4274 276.405L74.5769 274.595C73.4055 275.145 72.247 275.707 71.1012 276.279L71.9951 278.068ZM75.4274 276.405C76.633 275.839 77.8332 275.306 79.028 274.806L78.2559 272.961C77.0342 273.472 75.808 274.017 74.5769 274.595L75.4274 276.405ZM86.2525 272.156C88.7545 271.368 91.234 270.722 93.6925 270.212L93.2859 268.254C90.7607 268.778 88.2164 269.441 85.6518 270.248L86.2525 272.156ZM101.298 269.049C103.885 268.796 106.45 268.688 108.996 268.719L109.02 266.719C106.401 266.687 103.763 266.798 101.103 267.059L101.298 269.049ZM116.686 269.229C119.234 269.536 121.766 269.977 124.282 270.543L124.722 268.592C122.141 268.011 119.543 267.559 116.925 267.244L116.686 269.229ZM131.722 272.589C134.149 273.376 136.562 274.274 138.966 275.276L139.735 273.431C137.285 272.409 134.82 271.491 132.339 270.687L131.722 272.589ZM145.994 278.511C148.273 279.656 150.543 280.89 152.807 282.204L153.811 280.475C151.515 279.141 149.209 277.889 146.892 276.724L145.994 278.511ZM159.416 286.278C161.562 287.676 163.702 289.141 165.838 290.668L167.001 289.041C164.843 287.499 162.679 286.017 160.507 284.603L159.416 286.278ZM172.094 295.317C174.127 296.884 176.156 298.5 178.183 300.162L179.451 298.616C177.409 296.942 175.365 295.313 173.315 293.733L172.094 295.317ZM184.134 305.17C186.085 306.852 188.034 308.57 189.984 310.322L191.32 308.834C189.361 307.074 187.402 305.347 185.44 303.655L184.134 305.17ZM195.749 315.589C197.646 317.349 199.543 319.135 201.442 320.943L202.821 319.494C200.917 317.681 199.013 315.889 197.11 314.123L195.749 315.589ZM207.06 326.344C208.919 328.147 210.781 329.968 212.646 331.8L214.048 330.374C212.181 328.539 210.316 326.715 208.453 324.908L207.06 326.344ZM218.212 337.292C220.059 339.12 221.909 340.956 223.764 342.796L225.172 341.376C223.317 339.536 221.467 337.7 219.619 335.871L218.212 337.292ZM229.314 348.297C231.165 350.128 233.022 351.959 234.886 353.788L236.286 352.36C234.426 350.534 232.571 348.705 230.721 346.875L229.314 348.297ZM240.487 359.25C242.361 361.066 244.242 362.874 246.131 364.671L247.509 363.221C245.625 361.429 243.748 359.625 241.878 357.814L240.487 359.25ZM251.834 370.036C253.749 371.816 255.673 373.581 257.606 375.327L258.947 373.843C257.021 372.104 255.105 370.346 253.196 368.571L251.834 370.036ZM263.458 380.525C265.434 382.249 267.421 383.95 269.419 385.624L270.703 384.091C268.716 382.426 266.739 380.734 264.772 379.018L263.458 380.525ZM275.488 390.591C277.538 392.228 279.601 393.832 281.677 395.401L282.882 393.805C280.821 392.248 278.773 390.655 276.736 389.028L275.488 390.591ZM288.002 400.031C290.151 401.553 292.314 403.032 294.494 404.464L295.592 402.793C293.433 401.374 291.289 399.908 289.158 398.399L288.002 400.031ZM301.141 408.652C303.394 410.01 305.665 411.314 307.954 412.56L308.91 410.803C306.648 409.572 304.403 408.282 302.173 406.939L301.141 408.652ZM314.941 416.148C317.313 417.293 319.706 418.373 322.121 419.383L322.892 417.538C320.512 416.543 318.152 415.477 315.81 414.347L314.941 416.148ZM329.469 422.209C330.707 422.643 331.951 423.058 333.201 423.453L333.804 421.547C332.574 421.158 331.35 420.749 330.132 420.321L329.469 422.209ZM333.201 423.453C334.592 423.894 335.96 424.313 337.305 424.712L337.874 422.795C336.541 422.399 335.185 421.983 333.804 421.547L333.201 423.453ZM345.205 426.893C348.013 427.607 350.709 428.222 353.299 428.743L353.694 426.783C351.139 426.268 348.475 425.66 345.698 424.955L345.205 426.893ZM361.532 430.14C364.444 430.534 367.205 430.794 369.822 430.926L369.923 428.929C367.366 428.799 364.662 428.545 361.8 428.158L361.532 430.14ZM378.139 430.903C381.137 430.717 383.914 430.333 386.489 429.767L386.059 427.813C383.594 428.355 380.92 428.727 378.015 428.907L378.139 430.903ZM394.515 427.157C397.212 425.952 399.618 424.492 401.772 422.818L400.545 421.239C398.517 422.815 396.25 424.192 393.699 425.332L394.515 427.157ZM407.784 416.871C409.538 414.688 411.059 412.322 412.399 409.823L410.636 408.878C409.345 411.285 407.891 413.545 406.225 415.618L407.784 416.871ZM415.847 402.196C416.831 399.629 417.702 396.98 418.501 394.292L416.584 393.722C415.795 396.375 414.941 398.973 413.98 401.48L415.847 402.196ZM420.692 386.296C421.378 383.628 422.046 380.926 422.719 378.285L420.78 377.792C420.1 380.462 419.443 383.122 418.755 385.797L420.692 386.296ZM424.855 370.352C425.636 367.67 426.474 365.066 427.416 362.576L425.545 361.869C424.58 364.421 423.726 367.078 422.935 369.793L424.855 370.352ZM430.759 355.19C432.078 352.78 433.572 350.564 435.298 348.589L433.793 347.273C431.955 349.375 430.381 351.715 429.005 354.23L430.759 355.19ZM441.3 343.389C443.422 342.032 445.812 340.921 448.525 340.103L447.947 338.188C445.064 339.058 442.504 340.245 440.223 341.704L441.3 343.389Z" fill="#2BB9FD"/>
</svg>
