<svg width="24" height="24" viewBox="0 0 24 24" fill="none" xmlns="http://www.w3.org/2000/svg">
<rect width="24" height="24" rx="12" fill="#7D2BFD"/>
<path d="M14.1484 8.95668C14.0916 8.45241 13.8572 8.06179 13.4453 7.7848C13.0334 7.50426 12.5149 7.36399 11.8899 7.36399C11.4425 7.36399 11.0554 7.43501 10.7287 7.57706C10.402 7.71555 10.1481 7.90732 9.96697 8.15234C9.78942 8.39382 9.70064 8.66903 9.70064 8.97798C9.70064 9.23722 9.76101 9.46094 9.88175 9.64915C10.006 9.83736 10.1676 9.99538 10.3665 10.1232C10.5689 10.2475 10.7855 10.3523 11.0163 10.4375C11.2472 10.5192 11.4691 10.5866 11.6822 10.6399L12.7475 10.9169C13.0955 11.0021 13.4524 11.1175 13.8182 11.2631C14.1839 11.4087 14.5231 11.6005 14.8356 11.8384C15.1481 12.0763 15.4002 12.3711 15.592 12.7227C15.7873 13.0742 15.8849 13.495 15.8849 13.9851C15.8849 14.603 15.7251 15.1516 15.4055 15.631C15.0895 16.1104 14.6296 16.4886 14.0259 16.7656C13.4258 17.0426 12.6996 17.1811 11.8473 17.1811C11.0305 17.1811 10.3239 17.0515 9.72727 16.7923C9.13068 16.533 8.66371 16.1655 8.32635 15.6896C7.98899 15.2102 7.80256 14.642 7.76705 13.9851H9.41832C9.45028 14.3793 9.57813 14.7077 9.80185 14.9705C10.0291 15.2298 10.3185 15.4233 10.6701 15.5511C11.0252 15.6754 11.4141 15.7376 11.8366 15.7376C12.3018 15.7376 12.7156 15.6648 13.0778 15.5192C13.4435 15.37 13.7312 15.1641 13.9407 14.9013C14.1502 14.6349 14.255 14.3242 14.255 13.9691C14.255 13.646 14.1626 13.3814 13.978 13.1754C13.7969 12.9695 13.5501 12.799 13.2376 12.6641C12.9286 12.5291 12.5788 12.4102 12.1882 12.3072L10.8991 11.9556C10.0256 11.7177 9.3331 11.3679 8.82173 10.9062C8.31392 10.4446 8.06001 9.83381 8.06001 9.07386C8.06001 8.44531 8.23047 7.89666 8.57138 7.42791C8.91229 6.95916 9.37393 6.59517 9.95632 6.33594C10.5387 6.07315 11.1957 5.94176 11.9272 5.94176C12.6658 5.94176 13.3175 6.07138 13.8821 6.33061C14.4503 6.58984 14.8977 6.94673 15.2244 7.40128C15.5511 7.85227 15.7216 8.37074 15.7358 8.95668H14.1484Z" fill="white"/>
</svg>
