<svg width="24" height="25" viewBox="0 0 24 25" fill="none" xmlns="http://www.w3.org/2000/svg">
<g clip-path="url(#clip0_580_7669)">
<path fill-rule="evenodd" clip-rule="evenodd" d="M12 24.8613C18.6274 24.8613 24 19.4887 24 12.8613C24 6.23391 18.6274 0.861328 12 0.861328C5.37258 0.861328 0 6.23391 0 12.8613C0 19.4887 5.37258 24.8613 12 24.8613ZM9.32041 6.4006C10.0138 6.36905 10.2353 6.36133 12.0006 6.36133H11.9986C13.7644 6.36133 13.9852 6.36905 14.6785 6.4006C15.3705 6.43229 15.8431 6.54185 16.2575 6.70259C16.6854 6.86849 17.047 7.09058 17.4085 7.45216C17.7701 7.81346 17.9922 8.17612 18.1587 8.60365C18.3185 9.01696 18.4282 9.48931 18.4607 10.1813C18.4919 10.8747 18.5 11.0962 18.5 12.8616C18.5 14.6269 18.4919 14.8479 18.4607 15.5413C18.4282 16.233 18.3185 16.7055 18.1587 17.119C17.9922 17.5464 17.7701 17.909 17.4085 18.2703C17.0474 18.6319 16.6853 18.8545 16.2579 19.0206C15.8443 19.1813 15.3714 19.2909 14.6795 19.3226C13.9861 19.3541 13.7652 19.3618 11.9998 19.3618C10.2346 19.3618 10.0132 19.3541 9.31987 19.3226C8.62802 19.2909 8.15555 19.1813 7.74198 19.0206C7.31474 18.8545 6.95209 18.6319 6.59093 18.2703C6.2295 17.909 6.00741 17.5464 5.84125 17.1188C5.68065 16.7055 5.57109 16.2332 5.53927 15.5412C5.50785 14.8478 5.5 14.6269 5.5 12.8616C5.5 11.0962 5.50812 10.8745 5.53914 10.1812C5.57028 9.48945 5.67997 9.01696 5.84112 8.60352C6.00768 8.17612 6.22977 7.81346 6.59133 7.45216C6.95263 7.09071 7.31528 6.86862 7.74279 6.70259C8.15609 6.54185 8.62843 6.43229 9.32041 6.4006ZM11.784 7.53267C11.6525 7.53261 11.5307 7.53255 11.4175 7.53273V7.53111C10.206 7.53246 9.97367 7.54059 9.37404 7.56767C8.74028 7.59679 8.39619 7.70242 8.16706 7.79179C7.86372 7.90988 7.64705 8.05072 7.41955 8.27823C7.19205 8.50574 7.05094 8.72242 6.93313 9.02576C6.84416 9.2549 6.73826 9.59887 6.70928 10.2326C6.67814 10.9179 6.67191 11.1226 6.67191 12.8584C6.67191 14.5943 6.67814 14.8001 6.70928 15.4854C6.73813 16.1191 6.84416 16.4631 6.93313 16.692C7.05121 16.9955 7.19205 17.2116 7.41955 17.4391C7.64705 17.6666 7.86372 17.8075 8.16706 17.9253C8.39632 18.0142 8.74028 18.1201 9.37404 18.1494C10.0593 18.1805 10.265 18.1873 12.0006 18.1873C13.7361 18.1873 13.942 18.1805 14.6272 18.1494C15.2609 18.1204 15.6052 18.0148 15.834 17.9254C16.1375 17.8076 16.3535 17.6668 16.581 17.4392C16.8085 17.2119 16.9496 16.9959 17.0674 16.6925C17.1564 16.4637 17.2623 16.1197 17.2913 15.4859C17.3224 14.8007 17.3292 14.5948 17.3292 12.8601C17.3292 11.1253 17.3224 10.9195 17.2913 10.2343C17.2624 9.60049 17.1564 9.25652 17.0674 9.02766C16.9493 8.72431 16.8085 8.50764 16.581 8.28013C16.3536 8.05262 16.1374 7.91178 15.834 7.79396C15.6049 7.70499 15.2609 7.59909 14.6272 7.57011C13.9418 7.53896 13.7361 7.53273 12.0006 7.53273C11.9256 7.53273 11.8534 7.5327 11.784 7.53267ZM14.6903 9.39181C14.6903 8.96103 15.0397 8.61205 15.4703 8.61205C15.9009 8.61205 16.2503 8.96116 16.2503 9.39181C16.2503 9.82245 15.9009 10.1718 15.4703 10.1718C15.0397 10.1718 14.6903 9.82245 14.6903 9.39181ZM8.66255 12.8616C8.66255 11.0181 10.1571 9.52351 12.0005 9.52344C13.8439 9.52344 15.3381 11.0181 15.3381 12.8616C15.3381 14.7051 13.8441 16.199 12.0006 16.199C10.1572 16.199 8.66255 14.7051 8.66255 12.8616ZM14.1673 12.8616C14.1673 11.6648 13.1972 10.6948 12.0006 10.6948C10.8039 10.6948 9.83392 11.6648 9.83392 12.8616C9.83392 14.0582 10.8039 15.0283 12.0006 15.0283C13.1972 15.0283 14.1673 14.0582 14.1673 12.8616Z" fill="#83838F"/>
</g>
<defs>
<clipPath id="clip0_580_7669">
<rect width="24" height="24" fill="white" transform="translate(0 0.861328)"/>
</clipPath>
</defs>
</svg>
