<svg width="24" height="25" viewBox="0 0 24 25" fill="none" xmlns="http://www.w3.org/2000/svg">
<g clip-path="url(#clip0_580_7667)">
<path d="M7.3 1.76133C8.8 1.16133 10.4 0.861328 12 0.861328C13.6 0.861328 15.2 1.16133 16.7 1.76133C18.2 2.36133 19.5 3.26133 20.5 4.36133C21.5 5.46133 22.4 6.66133 23.1 8.16133C23.8 9.66133 24 11.1613 24 12.8613C24 14.5613 23.7 16.0613 23.1 17.5613C22.5 19.0613 21.6 20.3613 20.5 21.3613C19.4 22.3613 18.2 23.2613 16.7 23.9613C15.2 24.6613 13.6 24.8613 12 24.8613C10.4 24.8613 8.8 24.5613 7.3 23.9613C5.8 23.3613 4.5 22.4613 3.5 21.3613C2.5 20.2613 1.6 19.0613 0.9 17.5613C0.2 16.0613 0 14.4613 0 12.8613C0 11.2613 0.3 9.66133 0.9 8.16133C1.5 6.66133 2.4 5.36133 3.5 4.36133C4.6 3.36133 5.8 2.46133 7.3 1.76133ZM7.85709 9.39191C8.35913 9.39191 8.7775 9.22456 9.1122 8.97353C9.4469 8.72251 9.53058 8.30414 9.53058 7.88576C9.53058 7.46739 9.36323 7.13269 9.02853 6.88167C8.69383 6.63065 8.35913 6.4633 7.85709 6.4633C7.35504 6.4633 6.93667 6.63065 6.68564 6.88167C6.43462 7.13269 6.18359 7.46739 6.18359 7.88576C6.18359 8.30414 6.35094 8.63884 6.60197 8.97353C6.85299 9.30823 7.35504 9.39191 7.85709 9.39191ZM9.1122 17.7593V10.647H6.60197V17.7593H9.1122ZM18.3164 17.7593V13.994C18.3164 12.8225 18.0654 11.9021 17.5633 11.2327C17.0613 10.5633 16.3082 10.2286 15.3878 10.2286C14.8857 10.2286 14.4674 10.396 14.1327 10.647C13.798 10.898 13.4633 11.3164 13.3796 11.7348L13.2959 10.647H10.7857L10.8694 12.3205V17.7593H13.3796V13.994C13.3796 13.4919 13.4633 13.0736 13.7143 12.7389C13.9653 12.4042 14.2164 12.3205 14.6347 12.3205C15.0531 12.3205 15.3878 12.4878 15.5551 12.7389C15.7225 12.9899 15.8898 13.4083 15.8898 13.994V17.7593H18.3164Z" fill="#83838F"/>
</g>
<defs>
<clipPath id="clip0_580_7667">
<rect width="24" height="24" fill="white" transform="translate(0 0.861328)"/>
</clipPath>
</defs>
</svg>
