<svg width="24" height="25" viewBox="0 0 24 25" fill="none" xmlns="http://www.w3.org/2000/svg">
<g clip-path="url(#clip0_580_7664)">
<path d="M12 24.8613C18.6274 24.8613 24 19.4887 24 12.8613C24 6.23391 18.6274 0.861328 12 0.861328C5.37258 0.861328 0 6.23391 0 12.8613C0 19.4887 5.37258 24.8613 12 24.8613Z" fill="#83838F"/>
<path d="M19.0488 9.22363C19.0488 9.16113 19.0488 9.09863 18.9863 9.03613V8.97363C18.7988 8.41113 18.2988 8.03613 17.6738 8.03613H17.7988C17.7988 8.03613 15.3613 7.66113 12.0488 7.66113C8.79883 7.66113 6.29883 8.03613 6.29883 8.03613H6.42383C5.79883 8.03613 5.29883 8.41113 5.11133 8.97363V9.03613C5.11133 9.09863 5.11133 9.16113 5.04883 9.22363C4.98633 9.84863 4.79883 11.1611 4.79883 12.6611C4.79883 14.1611 4.98633 15.4736 5.04883 16.0986C5.04883 16.1611 5.04883 16.2236 5.11133 16.2861V16.3486C5.29883 16.9111 5.79883 17.2861 6.42383 17.2861H6.29883C6.29883 17.2861 8.73633 17.6611 12.0488 17.6611C15.2988 17.6611 17.7988 17.2861 17.7988 17.2861H17.6738C18.2988 17.2861 18.7988 16.9111 18.9863 16.3486V16.2861C18.9863 16.2236 18.9863 16.1611 19.0488 16.0986C19.1113 15.4736 19.2988 14.1611 19.2988 12.6611C19.2988 11.1611 19.1738 9.84863 19.0488 9.22363ZM14.4143 13.1501L11.2135 15.4656C11.1454 15.5337 11.0773 15.5337 11.0092 15.5337C10.9411 15.5337 10.873 15.5337 10.8049 15.4656C10.6686 15.3975 10.6005 15.2613 10.6005 15.1251V10.4941C10.6005 10.3579 10.6686 10.2217 10.8049 10.1536C10.9411 10.0855 11.0773 10.0855 11.2135 10.1536L14.4143 12.4691C14.4824 12.5372 14.5505 12.6734 14.5505 12.8096C14.6186 12.9458 14.5505 13.082 14.4143 13.1501Z" fill="white"/>
</g>
<defs>
<clipPath id="clip0_580_7664">
<rect width="24" height="24" fill="white" transform="translate(0 0.861328)"/>
</clipPath>
</defs>
</svg>
