<svg width="24" height="25" viewBox="0 0 24 25" fill="none" xmlns="http://www.w3.org/2000/svg">
<g clip-path="url(#clip0_580_7671)">
<path fill-rule="evenodd" clip-rule="evenodd" d="M12 24.8613C18.6274 24.8613 24 19.4887 24 12.8613C24 6.23391 18.6274 0.861328 12 0.861328C5.37258 0.861328 0 6.23391 0 12.8613C0 19.4887 5.37258 24.8613 12 24.8613ZM8.35866 18.652C11.318 18.652 13.7171 16.2365 13.7171 13.2567C13.7171 10.277 11.3182 7.86133 8.35866 7.86133C5.39915 7.86133 3 10.277 3 13.2567C3 16.2365 5.39933 18.652 8.35866 18.652ZM19.5956 13.2567C19.5956 16.0615 18.396 18.3361 16.9162 18.3361C15.4365 18.3361 14.2369 16.0615 14.2369 13.2567C14.2369 10.452 15.4363 8.17738 16.9161 8.17738C18.3958 8.17738 19.5956 10.4513 19.5956 13.2567ZM21.0577 17.8071C21.5782 17.8071 22 15.7691 22 13.2567C22 10.7436 21.578 8.70644 21.0577 8.70644C20.5374 8.70644 20.1155 10.7438 20.1155 13.2567C20.1155 15.7697 20.5372 17.8071 21.0577 17.8071Z" fill="#83838F"/>
</g>
<defs>
<clipPath id="clip0_580_7671">
<rect width="24" height="24" fill="white" transform="translate(0 0.861328)"/>
</clipPath>
</defs>
</svg>
