<svg width="24" height="25" viewBox="0 0 24 25" fill="none" xmlns="http://www.w3.org/2000/svg">
<g clip-path="url(#clip0_580_7662)">
<path d="M24 12.8613C24 19.4886 18.6273 24.8613 12 24.8613C5.37267 24.8613 0 19.4886 0 12.8613C0 6.234 5.37267 0.861328 12 0.861328C18.6273 0.861328 24 6.234 24 12.8613ZM10.5456 19.8613H13.04V13.6661H15.12L15.4304 11.2517H13.0384V9.70933C13.0384 9.01333 13.232 8.53333 14.2352 8.53333H15.5152V6.37173C14.896 6.30637 14.2738 6.27486 13.6512 6.27733C11.808 6.27733 10.5456 7.40213 10.5456 9.46933V11.2501H8.4656V13.6661H10.5456V19.8613Z" fill="#83838F"/>
</g>
<defs>
<clipPath id="clip0_580_7662">
<rect width="24" height="24" fill="white" transform="translate(0 0.861328)"/>
</clipPath>
</defs>
</svg>
