<svg width="24" height="25" viewBox="0 0 24 25" fill="none" xmlns="http://www.w3.org/2000/svg">
<g clip-path="url(#clip0_580_7660)">
<path d="M24 12.8613C24 19.4886 18.6273 24.8613 12 24.8613C5.37267 24.8613 0 19.4886 0 12.8613C0 6.234 5.37267 0.861328 12 0.861328C18.6273 0.861328 24 6.234 24 12.8613ZM18.6337 8.98763C18.1741 9.19151 17.6806 9.32905 17.162 9.39135C17.6911 9.0742 18.0981 8.57178 18.289 7.97309C17.7939 8.26678 17.2453 8.48036 16.662 8.59525C16.1944 8.09688 15.5286 7.78621 14.7915 7.78621C13.3757 7.78621 12.2285 8.93342 12.2285 10.3484C12.2285 10.5491 12.2511 10.7449 12.2948 10.9325C10.1654 10.8258 8.27711 9.80558 7.01339 8.25545C6.79333 8.63327 6.66631 9.0734 6.66631 9.54345C6.66631 10.4326 7.11856 11.2165 7.80625 11.676C7.38636 11.6631 6.99154 11.5474 6.64608 11.3557C6.64527 11.3662 6.64527 11.3767 6.64527 11.388C6.64527 12.6291 7.52875 13.6655 8.70105 13.9001C8.48585 13.9592 8.25931 13.9907 8.02631 13.9907C7.86046 13.9907 7.70026 13.9745 7.54412 13.9446C7.87016 14.9624 8.81594 15.7035 9.93727 15.7237C9.06027 16.4114 7.95592 16.8208 6.7553 16.8208C6.54819 16.8208 6.34431 16.8086 6.14367 16.7852C7.27794 17.5117 8.625 17.9364 10.0724 17.9364C14.7851 17.9364 17.3627 14.032 17.3627 10.6454C17.3627 10.5345 17.3602 10.4237 17.3554 10.3137C17.8562 9.95282 18.2906 9.50137 18.6337 8.98763Z" fill="#83838F"/>
</g>
<defs>
<clipPath id="clip0_580_7660">
<rect width="24" height="24" fill="white" transform="translate(0 0.861328)"/>
</clipPath>
</defs>
</svg>
