<svg width="250" height="166" viewBox="0 0 250 166" fill="none" xmlns="http://www.w3.org/2000/svg">
<g clip-path="url(#clip0_991_217)">
<path d="M173.421 3.89157L15.3484 34.8629C6.91595 36.5151 1.28543 45.4504 2.7723 54.8204L17.5795 148.133C19.0664 157.503 27.1076 163.76 35.5401 162.108L193.612 131.136C202.045 129.484 207.675 120.549 206.188 111.179L191.381 17.866C189.894 8.49592 181.853 2.23938 173.421 3.89157Z" fill="url(#paint0_linear_991_217)"/>
<path fill-rule="evenodd" clip-rule="evenodd" d="M43.1831 86.2634C51.6155 84.6113 57.2461 75.676 55.7591 66.3059C54.2723 56.9359 46.231 50.6794 37.7986 52.3316C29.3661 53.9837 23.7356 62.919 25.2225 72.2891C26.7093 81.6591 34.7505 87.9157 43.1831 86.2634ZM40.6245 122.845C36.6717 123.62 34.0324 127.808 34.7294 132.2C35.4264 136.592 39.1957 139.525 43.1484 138.75L96.5875 128.28C100.54 127.506 103.18 123.317 102.482 118.925C101.786 114.533 98.0161 111.6 94.0636 112.374L40.6245 122.845ZM109.162 117.616C108.466 113.224 111.105 109.036 115.058 108.261L135.098 104.335C139.05 103.56 142.819 106.493 143.516 110.885C144.213 115.277 141.574 119.466 137.621 120.24L117.582 124.167C113.629 124.941 109.859 122.008 109.162 117.616ZM67.7175 48.6562C65.0824 49.1725 63.3228 51.9648 63.7874 54.8929C64.2522 57.821 66.7651 59.7762 69.4001 59.2599L134.29 46.5458C136.926 46.0295 138.686 43.2372 138.221 40.3091C137.756 37.3809 135.243 35.4258 132.608 35.9421L67.7175 48.6562ZM66.648 72.9192C66.1834 69.991 67.9429 67.1988 70.578 66.6825L98.2516 61.2603C100.887 60.744 103.4 62.6991 103.865 65.6273C104.329 68.5554 102.569 71.3477 99.9347 71.864L72.2606 77.2862C69.6255 77.8025 67.1126 75.8474 66.648 72.9192ZM156.092 100.221C152.138 100.996 149.5 105.184 150.196 109.576C150.893 113.969 154.662 116.901 158.615 116.127L178.655 112.2C182.607 111.426 185.247 107.238 184.55 102.845C183.853 98.4532 180.084 95.5205 176.13 96.2949L156.092 100.221Z" fill="url(#paint1_linear_991_217)" fill-opacity="0.7"/>
<g filter="url(#filter0_d_991_217)">
<path d="M226.435 20.2386L203.532 15.7513C195.1 14.0991 187.058 20.3557 185.571 29.7257L181.533 55.1746C180.046 64.5447 185.677 73.4799 194.109 75.1321L217.012 79.6195C225.444 81.2716 233.485 75.0151 234.972 65.6451L239.011 40.1961C240.498 30.8261 234.867 21.8908 226.435 20.2386Z" fill="url(#paint2_linear_991_217)"/>
<g filter="url(#filter1_d_991_217)">
<path d="M213.057 53.5189C220.819 55.0399 226.413 51.4831 227.521 44.2824C228.64 37.4388 224.741 31.387 216.816 29.8341L204.724 27.4648C204.196 27.3615 203.694 27.7526 203.6 28.3382L201.176 43.6142C201.084 44.1997 200.581 44.5908 200.054 44.4875L197.217 43.9316C196.69 43.8284 196.187 44.2194 196.095 44.8051L195.433 48.9726C195.34 49.5582 195.692 50.1166 196.219 50.2198L199.056 50.7758C199.583 50.879 199.935 51.4375 199.842 52.023L199.799 52.2944C199.706 52.88 199.203 53.2711 198.677 53.1678L195.84 52.6119C195.313 52.5086 194.81 52.8997 194.717 53.4853L194.056 57.6527C193.963 58.2384 194.315 58.7969 194.842 58.9001L197.679 59.456C198.206 59.5593 198.558 60.1177 198.465 60.7033L198.048 63.3304C197.955 63.9161 198.307 64.4746 198.834 64.5778L203.938 65.5779C204.465 65.6811 204.968 65.2901 205.061 64.7044L205.477 62.0773C205.57 61.4917 206.072 61.1006 206.6 61.2039L211.981 62.2583C212.508 62.3616 213.01 61.9705 213.103 61.3849L213.765 57.2174C213.858 56.6318 213.507 56.0734 212.979 55.9701L207.598 54.9158C207.07 54.8125 206.719 54.254 206.812 53.6684L206.854 53.3971C206.947 52.8114 207.45 52.4205 207.977 52.5237L213.057 53.5189ZM208.975 46.2355C208.448 46.1323 208.097 45.5738 208.189 44.9881L209.6 36.091C209.694 35.5054 210.196 35.1143 210.724 35.2176L215.803 36.2129C219.538 36.9446 220.968 39.8032 220.445 42.9895C219.944 46.2546 217.822 47.9689 213.859 47.1924L208.975 46.2355Z" fill="#F6F8FE"/>
</g>
<path d="M226.435 20.2386L203.532 15.7513C195.1 14.0991 187.058 20.3557 185.571 29.7257L181.533 55.1746C180.046 64.5447 185.677 73.4799 194.109 75.1321L217.012 79.6195C225.444 81.2716 233.485 75.0151 234.972 65.6451L239.011 40.1961C240.498 30.8261 234.867 21.8908 226.435 20.2386Z" fill="url(#paint3_linear_991_217)" fill-opacity="0.3"/>
</g>
</g>
<defs>
<filter id="filter0_d_991_217" x="152.295" y="7.48633" width="97.9531" height="104.397" filterUnits="userSpaceOnUse" color-interpolation-filters="sRGB">
<feFlood flood-opacity="0" result="BackgroundImageFix"/>
<feColorMatrix in="SourceAlpha" type="matrix" values="0 0 0 0 0 0 0 0 0 0 0 0 0 0 0 0 0 0 127 0" result="hardAlpha"/>
<feOffset dx="-9" dy="12"/>
<feGaussianBlur stdDeviation="10"/>
<feColorMatrix type="matrix" values="0 0 0 0 0.427451 0 0 0 0 0.462745 0 0 0 0 0.639216 0 0 0 0.3 0"/>
<feBlend mode="normal" in2="BackgroundImageFix" result="effect1_dropShadow_991_217"/>
<feBlend mode="normal" in="SourceGraphic" in2="effect1_dropShadow_991_217" result="shape"/>
</filter>
<filter id="filter1_d_991_217" x="193.041" y="27.4482" width="35.668" height="40.1465" filterUnits="userSpaceOnUse" color-interpolation-filters="sRGB">
<feFlood flood-opacity="0" result="BackgroundImageFix"/>
<feColorMatrix in="SourceAlpha" type="matrix" values="0 0 0 0 0 0 0 0 0 0 0 0 0 0 0 0 0 0 127 0" result="hardAlpha"/>
<feOffset dy="1"/>
<feGaussianBlur stdDeviation="0.5"/>
<feComposite in2="hardAlpha" operator="out"/>
<feColorMatrix type="matrix" values="0 0 0 0 0.427451 0 0 0 0 0.462745 0 0 0 0 0.639216 0 0 0 0.25 0"/>
<feBlend mode="normal" in2="BackgroundImageFix" result="effect1_dropShadow_991_217"/>
<feBlend mode="normal" in="SourceGraphic" in2="effect1_dropShadow_991_217" result="shape"/>
</filter>
<linearGradient id="paint0_linear_991_217" x1="135.586" y1="11.3045" x2="139.274" y2="138.62" gradientUnits="userSpaceOnUse">
<stop stop-color="#E2F0FF"/>
<stop offset="1" stop-color="#C9D9FF"/>
</linearGradient>
<linearGradient id="paint1_linear_991_217" x1="139.963" y1="20.2875" x2="104.791" y2="123.391" gradientUnits="userSpaceOnUse">
<stop stop-color="white"/>
<stop offset="1" stop-color="white" stop-opacity="0.49"/>
</linearGradient>
<linearGradient id="paint2_linear_991_217" x1="182.774" y1="101.611" x2="166.499" y2="41.7092" gradientUnits="userSpaceOnUse">
<stop stop-color="#A4B5FF"/>
<stop offset="1" stop-color="#ADD4FF"/>
</linearGradient>
<linearGradient id="paint3_linear_991_217" x1="232.518" y1="21.4306" x2="206.268" y2="51.0123" gradientUnits="userSpaceOnUse">
<stop stop-color="white"/>
<stop offset="1" stop-color="white" stop-opacity="0"/>
</linearGradient>
<clipPath id="clip0_991_217">
<rect width="250" height="165.816" fill="white" transform="translate(0 0.0917969)"/>
</clipPath>
</defs>
</svg>
