<svg width="19" height="19" viewBox="0 0 19 19" fill="none" xmlns="http://www.w3.org/2000/svg">
<g clip-path="url(#clip0_1021_252)">
<path d="M16.5119 14.2506C16.2397 14.8795 15.9175 15.4584 15.5442 15.9906C15.0353 16.7161 14.6187 17.2183 14.2976 17.4972C13.7998 17.9549 13.2665 18.1894 12.6954 18.2027C12.2854 18.2027 11.791 18.0861 11.2154 17.8494C10.638 17.6138 10.1074 17.4972 9.62216 17.4972C9.11329 17.4972 8.56753 17.6138 7.98377 17.8494C7.39912 18.0861 6.92813 18.2094 6.56803 18.2216C6.02038 18.2449 5.47451 18.0038 4.92964 17.4972C4.58188 17.1939 4.14689 16.6739 3.62579 15.9372C3.0667 15.1506 2.60705 14.2384 2.24695 13.1984C1.8613 12.0751 1.66797 10.9874 1.66797 9.9343C1.66797 8.728 1.92863 7.68759 2.45072 6.81573C2.86104 6.11541 3.40691 5.56299 4.09011 5.15744C4.77331 4.7519 5.51151 4.54524 6.30649 4.53202C6.74147 4.53202 7.3119 4.66657 8.02077 4.93101C8.72763 5.19633 9.18151 5.33088 9.3805 5.33088C9.52927 5.33088 10.0335 5.17355 10.8882 4.8599C11.6965 4.56902 12.3787 4.44858 12.9376 4.49602C14.452 4.61824 15.5897 5.21522 16.3464 6.29074C14.992 7.11138 14.322 8.26079 14.3353 9.7353C14.3476 10.8838 14.7642 11.8396 15.5831 12.5984C15.9542 12.9507 16.3686 13.2229 16.8297 13.4162C16.7297 13.7062 16.6242 13.984 16.5119 14.2506ZM13.0387 0.583247C13.0387 1.48345 12.7098 2.32397 12.0543 3.10195C11.2632 4.02681 10.3064 4.56124 9.26873 4.47691C9.2555 4.36891 9.24784 4.25525 9.24784 4.13581C9.24784 3.27161 9.62405 2.34675 10.2921 1.59055C10.6257 1.20767 11.0499 0.889316 11.5643 0.635356C12.0776 0.385186 12.5632 0.246836 13.0198 0.223145C13.0332 0.343488 13.0387 0.463839 13.0387 0.583235V0.583247Z" fill="black"/>
</g>
<defs>
<clipPath id="clip0_1021_252">
<rect width="18" height="18" fill="white" transform="translate(0.167969 0.223145)"/>
</clipPath>
</defs>
</svg>
