<svg width="16" height="17" viewBox="0 0 16 17" fill="none" xmlns="http://www.w3.org/2000/svg">
<path d="M7.16196 3.61802C7.4329 3.57797 7.7124 3.55648 8.00028 3.55648C11.4036 3.55648 13.6369 6.55971 14.3871 7.74769C14.4779 7.89148 14.5233 7.96337 14.5488 8.07426C14.5678 8.15754 14.5678 8.28892 14.5487 8.3722C14.5233 8.48308 14.4776 8.55545 14.3861 8.70019C14.1862 9.01658 13.8814 9.46121 13.4777 9.94345M4.48288 4.69984C3.0415 5.67761 2.06297 7.03606 1.61407 7.74667C1.52286 7.89106 1.47725 7.96325 1.45183 8.07413C1.43273 8.15741 1.43272 8.28877 1.45181 8.37205C1.47722 8.48293 1.52262 8.55482 1.61342 8.6986C2.36369 9.88658 4.59694 12.8898 8.00028 12.8898C9.37255 12.8898 10.5546 12.4015 11.5259 11.7409M2.00028 2.22314L14.0003 14.2231M6.58606 6.80893C6.22413 7.17086 6.00028 7.67086 6.00028 8.22314C6.00028 9.32771 6.89571 10.2231 8.00028 10.2231C8.55256 10.2231 9.05256 9.99929 9.41449 9.63736" stroke="#A5A5A5" stroke-width="1.5" stroke-linecap="round" stroke-linejoin="round"/>
</svg>
