<svg width="19" height="19" viewBox="0 0 19 19" fill="none" xmlns="http://www.w3.org/2000/svg">
<g clip-path="url(#clip0_1021_245)">
<path d="M18.3242 9.43033C18.3242 8.81854 18.2746 8.20344 18.1688 7.60156H9.67969V11.0673H14.541C14.3393 12.1851 13.6911 13.1739 12.742 13.8022V16.0509H15.6422C17.3453 14.4834 18.3242 12.1685 18.3242 9.43033Z" fill="#4285F4"/>
<path d="M9.67934 18.2236C12.1067 18.2236 14.1537 17.4267 15.6452 16.0509L12.7449 13.8022C11.938 14.3511 10.8963 14.662 9.68265 14.662C7.33468 14.662 5.34387 13.0779 4.62955 10.9482H1.63672V13.2664C3.16455 16.3056 6.27644 18.2236 9.67934 18.2236Z" fill="#34A853"/>
<path d="M4.62659 10.9482C4.24959 9.83042 4.24959 8.62005 4.62659 7.50229V5.18408H1.63706C0.360562 7.72716 0.360562 10.7233 1.63706 13.2664L4.62659 10.9482Z" fill="#FBBC04"/>
<path d="M9.67934 3.78539C10.9625 3.76555 12.2026 4.24837 13.1318 5.13465L15.7014 2.56511C14.0743 1.03727 11.9149 0.197295 9.67934 0.223751C6.27644 0.223751 3.16455 2.14181 1.63672 5.18425L4.62625 7.50246C5.33725 5.36944 7.33137 3.78539 9.67934 3.78539Z" fill="#EA4335"/>
</g>
<defs>
<clipPath id="clip0_1021_245">
<rect width="18" height="18" fill="white" transform="translate(0.5 0.223145)"/>
</clipPath>
</defs>
</svg>
